<mxfile host="app.diagrams.net" modified="2023-09-13T07:53:49.370Z" agent="Mozilla/5.0 (Macintosh; Intel Mac OS X 10_15_7) AppleWebKit/537.36 (KHTML, like Gecko) Chrome/114.0.0.0 Safari/537.36" etag="f5H0X15X7gMpjxWPwD78" version="21.7.4" type="github">
  <diagram name="페이지-1" id="fiuSSu2Xz-Cz_Qztz7Re">
    <mxGraphModel dx="794" dy="1155" grid="1" gridSize="10" guides="1" tooltips="1" connect="1" arrows="1" fold="1" page="1" pageScale="1" pageWidth="827" pageHeight="1169" math="0" shadow="0">
      <root>
        <mxCell id="0" />
        <mxCell id="1" parent="0" />
        <mxCell id="_GvwiiuaDg607PDm9osk-1" value="&lt;p style=&quot;margin:0px;margin-top:4px;text-align:center;&quot;&gt;&lt;b&gt;String&lt;/b&gt;&lt;/p&gt;&lt;hr size=&quot;1&quot;&gt;&lt;div style=&quot;height:2px;&quot;&gt;&lt;/div&gt;" style="verticalAlign=top;align=left;overflow=fill;fontSize=12;fontFamily=Helvetica;html=1;whiteSpace=wrap;" vertex="1" parent="1">
          <mxGeometry x="460" y="60" width="140" height="60" as="geometry" />
        </mxCell>
        <mxCell id="_GvwiiuaDg607PDm9osk-2" value="&lt;p style=&quot;margin: 4px 0px 0px; font-size: 20px;&quot;&gt;&lt;b style=&quot;&quot;&gt;&lt;font style=&quot;font-size: 20px;&quot;&gt;Stack&lt;/font&gt;&lt;/b&gt;&lt;/p&gt;&lt;hr style=&quot;font-size: 20px;&quot; size=&quot;1&quot;&gt;&lt;div style=&quot;height: 2px;&quot;&gt;&lt;font style=&quot;font-size: 15px;&quot;&gt;name&lt;/font&gt;&lt;/div&gt;" style="verticalAlign=top;align=center;overflow=fill;fontSize=12;fontFamily=Helvetica;html=1;whiteSpace=wrap;" vertex="1" parent="1">
          <mxGeometry x="80" y="240" width="140" height="280" as="geometry" />
        </mxCell>
        <mxCell id="_GvwiiuaDg607PDm9osk-4" value="" style="ellipse;shape=cloud;whiteSpace=wrap;html=1;" vertex="1" parent="1">
          <mxGeometry x="269" y="220" width="351" height="270" as="geometry" />
        </mxCell>
        <mxCell id="_GvwiiuaDg607PDm9osk-7" value="bottom" style="text;html=1;align=center;verticalAlign=middle;resizable=0;points=[];autosize=1;strokeColor=none;fillColor=none;" vertex="1" parent="1">
          <mxGeometry x="20" y="248" width="60" height="30" as="geometry" />
        </mxCell>
        <mxCell id="_GvwiiuaDg607PDm9osk-8" value="top" style="text;html=1;align=center;verticalAlign=middle;resizable=0;points=[];autosize=1;strokeColor=none;fillColor=none;" vertex="1" parent="1">
          <mxGeometry x="40" y="500" width="40" height="30" as="geometry" />
        </mxCell>
        <mxCell id="_GvwiiuaDg607PDm9osk-10" value="&lt;font style=&quot;font-size: 15px;&quot;&gt;&quot;KimBaBo&quot;&lt;/font&gt;" style="whiteSpace=wrap;html=1;" vertex="1" parent="1">
          <mxGeometry x="370" y="270" width="90" height="40" as="geometry" />
        </mxCell>
        <mxCell id="_GvwiiuaDg607PDm9osk-11" value="&lt;h2&gt;&lt;font style=&quot;font-size: 20px;&quot;&gt;Heap&lt;/font&gt;&lt;/h2&gt;" style="text;html=1;align=center;verticalAlign=middle;resizable=0;points=[];autosize=1;strokeColor=none;fillColor=none;" vertex="1" parent="1">
          <mxGeometry x="390" y="188" width="70" height="70" as="geometry" />
        </mxCell>
        <mxCell id="_GvwiiuaDg607PDm9osk-13" value="" style="endArrow=classic;html=1;rounded=0;entryX=0;entryY=0.5;entryDx=0;entryDy=0;fillColor=#f8cecc;strokeColor=#b85450;strokeWidth=4;" edge="1" parent="1" target="_GvwiiuaDg607PDm9osk-10">
          <mxGeometry width="50" height="50" relative="1" as="geometry">
            <mxPoint x="180" y="300" as="sourcePoint" />
            <mxPoint x="280" y="300" as="targetPoint" />
          </mxGeometry>
        </mxCell>
      </root>
    </mxGraphModel>
  </diagram>
</mxfile>
